# xmcd
#
# Track frame offsets:
#	150
#	13734
#	24668
#	37348
#	50916
#	62765
#	76849
#	90919
#	106145
#	122503
#	133781
#	142303
#	155244
#	166799
#	183152
#	194190
#	207932
#	221412
#	234170
#	247901
#	261210
#	275779
#	288896
#	302155
#	321054
#
# Disc length: 4511 seconds
#
# Revision: 1
# Processed by: cddbd v1.5.2PL0 Copyright (c) Steve Scherf et al.
# Submitted via: audiograbber 1.83.01
#
DISCID=71119d19
DTITLE=Lee Konitz and Gerry Mulligan and Shorty Rogers - Modern Jazz CD 008 Cool Ja
DTITLE=zz
DYEAR=2008
DGENRE=Jazz
TTITLE0=Shorty Rogers - Popo
TTITLE1=Shorty Rogers - Didi
TTITLE2=Shorty Rogers - Four Mothers
TTITLE3=Shorty Rogers - Over The Rainbow
TTITLE4=Shorty Rogers - Apropos
TTITLE5=Shorty Rogers - Sam And The Lady
TTITLE6=Gerry Mulligan Quartet - I Can't Believe That You're In Love With Me
TTITLE7=Gerry Mulligan Quartet - These Foolish Things
TTITLE8=Gerry Mulligan Quartet - Too Marvelous For Words
TTITLE9=Gerry Mulligan Quartet - Oh Lady Be Good
TTITLE10=Gerry Mulligan Quartet - Lady Be Good
TTITLE11=Gerry Mulligan Tentet - Ballad
TTITLE12=Gerry Mulligan Tentet - Westwood Walk
TTITLE13=Gerry Mulligan Tentet - Walkin' Shoes
TTITLE14=Gerry Mulligan Tentet - Rocker
TTITLE15=Gerry Mulligan Quartet - Lover Man
TTITLE16=Gerry Mulligan Tentet - Sextett
TTITLE17=Gerry Mulligan Tentet - Taking A Chance On Love
TTITLE18=Gerry Mulligan Tentet - Flash
TTITLE19=Gerry Mulligan Tentet - Simbah
TTITLE20=Gerry Mulligan Tentet - Ontet
TTITLE21=Gerry Mulligan Quartet - Broadway
TTITLE22=Gerry Mulligan Quartet - Almost Like Being In Love
TTITLE23=Gerry Mulligan Quartet - I'll Remember April
TTITLE24=Gerry Mulligan Quartet - All The Things You Are
EXTD=YEAR: 2008
EXTT0=
EXTT1=
EXTT2=
EXTT3=
EXTT4=
EXTT5=
EXTT6=
EXTT7=
EXTT8=
EXTT9=
EXTT10=
EXTT11=
EXTT12=
EXTT13=
EXTT14=
EXTT15=
EXTT16=
EXTT17=
EXTT18=
EXTT19=
EXTT20=
EXTT21=
EXTT22=
EXTT23=
EXTT24=
PLAYORDER=
